inDegrees=no
num_controls=7
num_derivatives=13
num_iterations=138
num_multipliers=7
num_parameters=0
num_slacks=7
num_states=26
objective=5.160972
objective_accelerations=0.728883
objective_balance=0.024760
objective_effort=0.233002
objective_height=4.054104
objective_ligament=0.120224
solver_duration=1531.791862
status=Solve_Succeeded
success=true
DataType=double
version=3
OpenSimVersion=4.4-2022-07-23-0e9fedc
endheader
time	/jointset/ground_pelvis/pelvis_tilt/value	/jointset/ground_pelvis/pelvis_tx/value	/jointset/ground_pelvis/pelvis_ty/value	/jointset/hip_l/hip_flexion_l/value	/jointset/hip_l/hip_adduction_l/value	/jointset/hip_l/hip_rotation_l/value	/jointset/back/lumbar_extension/value	/jointset/patellofemoral_l/patellar_flexion_l/value	/jointset/knee_l/knee_flexion_l/value	/jointset/knee_l/knee_adduction_l/value	/jointset/knee_l/knee_rotation_l/value	/jointset/ankle_l/ankle_angle_l/value	/jointset/subtalar_l/subtalar_angle_l/value	/jointset/ground_pelvis/pelvis_tilt/speed	/jointset/ground_pelvis/pelvis_tx/speed	/jointset/ground_pelvis/pelvis_ty/speed	/jointset/hip_l/hip_flexion_l/speed	/jointset/hip_l/hip_adduction_l/speed	/jointset/hip_l/hip_rotation_l/speed	/jointset/back/lumbar_extension/speed	/jointset/patellofemoral_l/patellar_flexion_l/speed	/jointset/knee_l/knee_flexion_l/speed	/jointset/knee_l/knee_adduction_l/speed	/jointset/knee_l/knee_rotation_l/speed	/jointset/ankle_l/ankle_angle_l/speed	/jointset/subtalar_l/subtalar_angle_l/speed	/forceset/tau_hip_flexion_l	/forceset/tau_hip_adduction_l	/forceset/tau_hip_rotation_l	/forceset/tau_knee_flexion_l	/forceset/tau_ankle_angle_l	/forceset/tau_subtalar_angle_l	/forceset/tau_lumbar_extension	lambda_cid13_p0	lambda_cid13_p1	lambda_cid13_p2	lambda_cid13_p3	lambda_cid13_p4	lambda_cid13_p5	lambda_cid14_p0	/jointset/ground_pelvis/pelvis_tilt/accel	/jointset/ground_pelvis/pelvis_tx/accel	/jointset/ground_pelvis/pelvis_ty/accel	/jointset/hip_l/hip_flexion_l/accel	/jointset/hip_l/hip_adduction_l/accel	/jointset/hip_l/hip_rotation_l/accel	/jointset/back/lumbar_extension/accel	/jointset/patellofemoral_l/patellar_flexion_l/accel	/jointset/knee_l/knee_flexion_l/accel	/jointset/knee_l/knee_adduction_l/accel	/jointset/knee_l/knee_rotation_l/accel	/jointset/ankle_l/ankle_angle_l/accel	/jointset/subtalar_l/subtalar_angle_l/accel	gamma_cid13_p0	gamma_cid13_p1	gamma_cid13_p2	gamma_cid13_p3	gamma_cid13_p4	gamma_cid13_p5	gamma_cid14_p0
0	0.05525920029250288	0.1042570492528832	0.9052347167723689	0.1266917050730164	-0.3494467739536807	-0.2439146939818632	-0.2144974744115991	0.2051547269256741	0.2051547269256735	-0.1316709184255591	-0.1685816055658341	0.09024399430361882	0.1016533586247323	0	0	0	0	0	0	0	0	0	0	0	0	0	0.1134056335530885	-0.04815331688620104	-0.004937041587304097	-0.2023876808839827	0.07831596911138861	-0.04934335021498671	-0.05337143405557129	-5.386047515548276	20.80071975908302	-1.801434608950914	24.88336112908122	-448.5647861008033	-66.94648419686327	-26.2243631233594	-6.205270784044837	-2.702927763689083	-0.9370638786542249	15.08396694416237	-0.09979558048192605	2.599670581500624	-4.087235393960298	7.880685151599264	7.880685151598406	1.825572579850322	-0.503259319928841	-0.3275468741781719	-0.2459918134310025	1.515415074452346e-08	1.99306413447249e-07	-6.085267658255505e-08	5.943406097265984e-09	9.914464469702644e-08	9.923989349766372e-08	2.832147861658755e-08
0.01	0.05495866848283501	0.1041238830862103	0.9051891599982606	0.127426876319533	-0.3494511686161395	-0.2437825011972257	-0.2147065872775587	0.2055385014023065	0.2055385014023042	-0.1315814552306767	-0.1686006585448	0.09022654993255891	0.1016413402886735	-0.05990126245653933	-0.0264722183023847	-0.009088006896915895	0.1463770104484254	-0.0008894724307350951	0.02634740493462758	-0.04151417239845724	0.07638568947322688	0.07638568947322368	0.01776546272303648	-0.00375513983173912	-0.003441751769870424	-0.002398934794043081	0.1118675839529185	-0.0542655212212808	-0.004840124519551211	-0.2027420855239316	0.07899211138783022	-0.04381442543621989	-0.05175987110600099	-4.777463707195489	18.2905786342878	-1.398541156484052	23.32584839531496	-448.803442322081	-72.13251087251719	-26.22437406461341	-5.851790479348624	-2.595215420044365	-0.8911470775713015	14.31598204781374	-0.08512793027662729	2.638618601632809	-4.137248043749935	7.462124302932581	7.462124302932648	1.732984420188397	-0.3033377870139884	-0.3454137353330338	-0.2361588342313848	1.558760915144609e-09	2.454031318684338e-07	-3.424945229747002e-08	2.042247218475289e-08	-8.263786404431781e-08	6.349967252150236e-08	3.698911708265241e-08
0.02	0.0540652767480231	0.1037308254252073	0.9050534275587112	0.1296061004610563	-0.3494647789740865	-0.2433895657328032	-0.2153215898436956	0.2066750554652191	0.2066750554652189	-0.1313181471482308	-0.1686556022165293	0.09017610316241192	0.1016054697003062	-0.1185719850286858	-0.05197829886602427	-0.01803513308822791	0.2888105790020954	-0.001843139097764796	0.0521485359568144	-0.08117794003537294	0.1505559172563821	0.1505559172563802	0.03476897751239513	-0.007178138552180334	-0.006600479817402984	-0.004770450461703983	0.1103295343527178	-0.0603777255563613	-0.00474320745178868	-0.2030964901638851	0.07966825366427295	-0.0382855006574537	-0.05014830815646061	-4.132956254546812	15.77953416438395	-1.001657789925536	21.85315856217695	-448.3240880988584	-77.17383859250192	-26.22424005133902	-5.959162807166252	-2.509700215940073	-0.9088877375334494	14.29527856521128	-0.1126344277408476	2.490415799012471	-3.717154441651988	7.437592813584937	7.437592813584976	1.673182993114755	-0.4368310976692626	-0.2709421297106165	-0.2405079881545723	-1.203662891423425e-08	2.914998502896187e-07	-7.646228012384999e-09	3.49015382722398e-08	-2.644203727856621e-07	2.775945154534103e-08	4.565675554871726e-08
0.03	0.05259124199734644	0.1030868834432354	0.9048286340917933	0.1331911559981407	-0.3494881045223893	-0.2427422430318712	-0.216323383922729	0.208542714583718	0.2085427145837184	-0.1308883281009536	-0.1687440289919069	0.09009478764310928	0.1015459658965679	-0.1759736799529262	-0.07671161239668919	-0.02692056111608128	0.4275653823348026	-0.00281903296734611	0.07722118770154303	-0.1188798266148982	0.2226055670049226	0.222605567004918	0.05107677002009815	-0.01044533675431802	-0.009694306255845794	-0.007135912994702567	0.106126330736452	-0.05724226814084866	-0.004215098267426346	-0.1991040790356798	0.07624576377442582	-0.03907067422207414	-0.04690747562815242	-5.209927953698236	16.1827174794145	-0.921570888536281	22.05150537517227	-447.5300172377703	-75.49844738721482	-26.22373062357186	-5.591475713024214	-2.440367113103326	-0.8779740770681972	13.57030953563836	-0.08967002402942434	2.501478232427116	-3.751548392629289	7.033090973305126	7.033090973304703	1.591918418909454	-0.2623907847043687	-0.3333451901946052	-0.2354506737688113	-1.708749850786686e-08	3.215776502369379e-07	-1.314455510301171e-09	4.229998950752469e-08	-3.677541259836437e-07	1.238272058350476e-08	5.299128483991233e-08
0.04	0.05055102972183185	0.102198564287662	0.9045150655962655	0.1381447052322192	-0.34952110964088	-0.2418470361394472	-0.217693165392863	0.2111197581832687	0.2111197581832681	-0.1302989629207378	-0.1688632730699447	0.08998158540156542	0.1014626304099203	-0.2318074899960168	-0.1008537335863027	-0.03579013881017962	0.5625093184010284	-0.003779053135434721	0.101725374255234	-0.154775418255482	0.2924328134661243	0.2924328134661166	0.06667820410025536	-0.01334159908519029	-0.01297782426562874	-0.009536787043554304	0.1019231271201951	-0.05410681072533702	-0.003686989083090924	-0.1951116679074643	0.07282327388458129	-0.03985584778669454	-0.04366664309984049	-6.254594439413393	16.58543613902543	-0.8473409813368278	22.32674390031688	-446.0915091930087	-73.68849440742601	-26.2223737516432	-5.64558583093628	-2.391461747729795	-0.9057176707824426	13.53310511191503	-0.1094596874423077	2.37672276080495	-3.35589545386372	6.993112156117165	6.993112156117141	1.531911307605591	-0.3626439234161834	-0.308880443978658	-0.2475902913252077	-2.196219242653563e-08	3.513251632054145e-07	4.599348913782625e-09	4.95524486840013e-08	-4.694703790673291e-07	-2.574144604840281e-09	6.029832734399669e-08
0.05	0.047959329654153	0.1010719865757708	0.9041125721462725	0.1444298953770545	-0.3495635920198215	-0.2407102524640147	-0.2194121480699913	0.2143847265979494	0.2143847265979509	-0.1295569223581375	-0.1690103496728193	0.08983508688786739	0.1013553212014722	-0.2862873745881088	-0.1243385940267535	-0.04472522229016857	0.6938822342949064	-0.004711694577195681	0.1255249637991001	-0.1887318435917848	0.3601928451474879	0.3601928451474892	0.08160573981276793	-0.01601200902537395	-0.01632469237009455	-0.011918145571451	0.09798021413722748	-0.05352662632777663	-0.003227709396316011	-0.1927698945391372	0.07158355860825252	-0.03884741533582995	-0.04065019464414357	-6.462667925285103	16.1326362540765	-0.716589506888567	21.74110908659468	-444.5275435617997	-73.75186212047028	-26.21964472808322	-5.312409404696058	-2.308506008355266	-0.8899990678949233	12.84241430870914	-0.08436136233311495	2.365628864524253	-3.372125036735103	6.612232907026778	6.612232907028138	1.454612154223041	-0.2099909464067715	-0.3479994996322809	-0.2324278219597937	-2.445753623356449e-08	3.184189137585195e-07	-1.60833434263063e-10	5.134097458729924e-08	-5.282972986689572e-07	-2.219997564503325e-08	6.041742918617689e-08
0.06	0.04483018681428215	0.09971425869624448	0.9036202087852222	0.1520094205769432	-0.3496152398111377	-0.2393386625304733	-0.2214620167931273	0.218316252176022	0.218316252176022	-0.1286693189481792	-0.1691822806585103	0.08965503779193443	0.1012243945700575	-0.339296044434215	-0.1470837671133089	-0.05376412102164756	0.8213763294121843	-0.005612135610562012	0.1486866258768385	-0.2209526274569481	0.4257442461440842	0.4257442461440941	0.09579077357123747	-0.01831247564905068	-0.01968794071263024	-0.0142602716368641	0.09403730115423874	-0.05294644193021923	-0.00276842970956237	-0.1904281211708171	0.07034384333192038	-0.03783898288496945	-0.03763374618846177	-6.642620427515491	15.68001189505629	-0.5916912682596103	21.22636447716643	-442.3985471963016	-73.69131074266687	-26.21483734986854	-5.35134288173912	-2.24352427695073	-0.926480721080451	12.75734095659501	-0.1030196057633836	2.249137267579406	-3.008767159635829	6.551386019163701	6.551386019163577	1.383410916796983	-0.2886552601148009	-0.3121564915926454	-0.2397437988284932	-2.685269687799798e-08	2.828746111572931e-07	-5.370446804293151e-09	5.289944014225281e-08	-5.853183515976564e-07	-4.202239472109349e-08	6.023388089522429e-08
0.07000000000000001	0.04117750691385466	0.0981326955807061	0.903036680874858	0.1608459809648526	-0.3496756767836395	-0.2377394578216091	-0.2238246423117193	0.2228931287476193	0.2228931287476203	-0.1276432912717672	-0.169376368859209	0.08944144679213664	0.1010703681154681	-0.3909895704729551	-0.1691093649707953	-0.06297233767539147	0.9452932241306068	-0.006463973949717757	0.1710487669515705	-0.2512924511844096	0.4892658189435728	0.4892658189435624	0.1092918903580789	-0.02043650865975601	-0.02303850449584629	-0.01653370676776226	0.08950779233561608	-0.05165415278349671	-0.002236158264209693	-0.187819215025411	0.06903259300658371	-0.03713975967324099	-0.03428775738522785	-6.860728482408737	15.36644800250509	-0.4867810981661889	20.70644262603511	-440.2308178137602	-73.22691203603074	-26.20724608600905	-5.040791831305961	-2.164143287850124	-0.922741385987458	12.11248723481426	-0.07461562702366467	2.213931502396997	-3.004586217727102	6.197743481004879	6.197743481001922	1.315082152348082	-0.1639877586672416	-0.3477327814076013	-0.2194893479292365	-2.546277816696619e-08	2.208251928189532e-07	-2.393614823491256e-08	5.037741485333397e-08	-5.959505038006736e-07	-5.504792235473188e-08	5.72891951585475e-08
